<svg width="153" height="57" viewBox="0 0 153 57" fill="none" xmlns="http://www.w3.org/2000/svg">
<g opacity="0.4" clip-path="url(#clip0_2_266)">
<path d="M34.8677 13.5139C31.7024 16.9125 28.4725 20.0475 25.6264 23.5033C20.9373 29.2007 18.266 35.7381 18.6877 43.2912C19.1247 51.0926 22.6168 57.905 32.356 56.9045C34.4421 56.6907 37.1515 56.0988 38.2839 54.6592C39.7962 52.7308 40.047 49.8057 40.8564 47.2549C39.268 46.6821 38.6942 47.6024 38.0141 48.454C36.7943 49.9776 35.6695 51.6463 34.199 52.8873C32.3028 54.4873 30.0001 55.2931 27.5377 54.0597C25.1742 52.8759 24.3192 50.6917 24.4028 48.221C24.4978 45.4411 24.665 42.6344 25.1818 39.908C26.9715 30.415 32.014 22.6174 37.7063 15.7402C40.6208 16.4619 43.1249 17.4051 45.6937 17.638C49.2238 17.9626 52.6323 17.1759 55.2162 14.4304C57.5114 11.9903 56.7362 8.96217 53.5253 8.11063C49.961 7.16744 46.3396 7.26672 43.0489 9.04618C41.6962 9.77553 40.8564 9.5006 39.6708 8.90871C34.5409 6.34644 29.3997 3.81091 24.19 1.43575C21.2831 0.110698 18.2166 -0.43536 14.979 0.389454C10.081 1.63813 7.08663 5.18178 7.33742 10.2338C7.44002 12.3225 8.4356 14.3502 8.84599 16.4428C9.12718 17.8824 9.31337 19.4098 9.11578 20.8418C9.02458 21.4986 7.89981 22.4838 7.26143 22.4723C6.37225 22.4571 5.18668 21.8614 4.67749 21.1282C3.57932 19.5435 4.4343 18.0084 5.41847 16.6032C5.79466 16.0686 6.06066 15.4538 6.46345 14.7168C3.97071 14.5068 2.20755 15.2514 1.34117 16.8246C0.379797 18.5697 0.527993 20.3797 1.51597 22.0637C3.26013 25.0308 7.40962 26.0885 10.5065 24.4236C13.2995 22.9229 14.8042 18.9325 13.0259 15.8891C12.1025 14.3082 11.0841 12.7808 10.1646 11.196C8.2152 7.84333 9.98216 4.0973 13.8581 3.88728C15.8378 3.78036 18.0874 4.13549 19.8315 5.02903C24.9842 7.68295 29.9545 10.7073 34.8677 13.5139Z" fill="white"/>
<path d="M61.4185 9.93211C61.1069 10.692 60.8675 11.3832 60.5483 12.04C57.0562 19.2036 53.6021 26.3864 50.0188 33.5042C49.0498 35.4288 48.9282 37.3075 49.2246 39.4269C51.1131 39.2245 52.8991 39.0374 54.7382 38.8388C53.0929 35.5395 55.73 33.5271 56.6534 30.5754C58.257 32.7863 58.6597 34.9286 58.9523 37.0861C59.5109 41.1834 60.8561 44.8492 65.0322 46.4378C70.9524 48.6907 76.6827 47.8697 81.9988 44.5399C83.0475 43.8831 83.6821 42.5581 84.6435 41.3743C81.577 40.5381 80.5928 41.0727 79.1602 42.8789C78.2786 43.9939 76.8879 45.1853 75.5807 45.3877C69.6301 46.3156 65.0132 45.1509 63.3184 37.9147C62.5508 34.6345 62.0227 31.3773 59.0055 29.1167C68.0227 26.5468 71.7314 22.4303 70.4432 16.4772C67.2399 18.4208 64.0898 20.3301 60.8789 22.2776C61.7187 20.5058 62.5622 18.6996 63.4286 16.9048C64.5002 14.6824 65.6174 12.4867 66.6623 10.2529C67.1601 9.19513 66.9891 7.9579 65.8188 7.77079C63.6224 7.4233 61.3995 7.67915 58.8003 8.88964C59.9023 9.32878 60.4951 9.56553 61.4185 9.93211Z" fill="white"/>
<path d="M91.4676 39.3696C92.562 39.2054 93.3029 39.1366 94.0249 38.9762C95.2599 38.7051 96.0275 38.3538 96.3657 36.6775C97.2396 32.3586 99.7628 28.8494 102.905 25.8098C101.283 30.266 97.7982 34.0923 98.5848 39.4841C100.842 39.0488 102.917 38.644 104.995 38.2431C104.991 38.0445 104.991 37.8459 104.988 37.6436C104.345 37.3724 103.707 37.1013 102.902 36.7576C103.354 35.6732 103.775 34.6345 104.22 33.6035C105.398 30.877 106.675 28.1926 107.716 25.4164C108.028 24.5802 108.043 23.1368 107.537 22.6365C107.051 22.1554 105.63 22.2776 104.786 22.5907C103.521 23.0566 102.396 23.9196 101.283 24.5725C101.287 22.1859 100.69 21.6093 98.2846 22.2699C97.1788 22.5716 96.2023 23.362 95.1155 23.9539C95.0775 23.3926 95.0395 22.858 94.9863 22.1401C92.2466 22.7816 89.4574 22.3959 86.9419 23.4384C86.9571 23.6217 86.9761 23.805 86.9913 23.9883C87.9451 24.225 88.9026 24.4618 90.3656 24.8246C89.009 27.4861 87.8045 30.0828 86.3871 32.561C85.1483 34.73 84.4796 36.9371 84.9241 39.5223C85.7411 39.3772 86.5277 39.1175 87.3143 39.1213C88.8077 39.129 89.0584 38.4225 89.4802 37.0211C90.8102 32.5954 93.1243 28.6432 96.4455 25.3401C95.2105 30.098 91.3384 33.9013 91.4676 39.3696Z" fill="white"/>
<path d="M130.394 24.3244C130.554 24.4427 130.717 24.5649 130.877 24.6833C130.69 25.3172 130.573 25.9816 130.307 26.5735C128.904 29.678 127.305 32.7062 126.077 35.8794C124.873 38.9877 125.12 39.1748 128.312 39.0145C129.068 38.9763 129.832 39.0068 130.584 38.9228C131.086 38.8655 131.572 38.6593 132.579 38.3729C131.523 37.8574 130.994 37.6016 130.28 37.2541C130.538 36.4942 130.709 35.6885 131.074 34.9897C132.127 32.9696 133.358 31.0374 134.319 28.9754C134.999 27.5129 135.535 25.9282 135.794 24.3396C136.014 22.9802 135.284 21.8881 133.685 22.2203C131.83 22.6022 130.022 23.1902 128.236 23.679C128.399 22.5182 127.647 22.2661 126.298 22.5334C124.565 22.8771 122.673 22.648 120.845 24.164C122.03 24.4389 122.775 24.6108 123.634 24.8093C121.966 29.8957 118.029 33.9663 118.269 39.6025C120.552 39.2321 122.642 38.8961 124.732 38.5562C124.763 38.3997 124.797 38.2431 124.827 38.0865C122.935 37.6016 122.825 36.4713 123.531 35.0469C124.846 32.3892 126.043 29.6666 127.529 27.1119C128.182 26.0045 129.425 25.2446 130.394 24.3244Z" fill="white"/>
<path d="M75.0941 35.0317C75.4095 36.3147 75.5919 37.6932 76.1239 38.919C76.3671 39.4765 77.3323 40.1066 77.9136 40.0569C79.7224 39.9004 82.2987 36.5095 82.3253 34.3672C81.5388 34.9591 80.8358 35.4861 79.6502 36.3758C79.6502 33.3133 79.6502 30.774 79.6502 28.2308C79.4108 28.1162 79.1752 28.0055 78.9358 27.8909C76.6103 30.4914 74.2809 33.0918 71.9554 35.6923C71.8148 35.5586 71.6742 35.425 71.5374 35.2913C72.8408 30.6288 75.1549 26.6881 79.5324 23.9883C80.5964 26.4857 81.44 28.9754 84.3735 30.0255C84.2177 27.2876 84.0771 24.8055 83.9327 22.2356C82.3557 22.2356 80.7978 21.9836 79.35 22.2776C72.3088 23.7172 65.8794 30.0599 66.5481 38.2507C66.7115 40.2555 67.2815 40.7137 68.9459 39.5911C71.0662 38.1629 73.0726 36.5438 75.0941 35.0317Z" fill="white"/>
<path d="M39.7658 35.1386C40.0774 36.4102 40.2712 37.7467 40.7652 38.9533C40.9856 39.4917 41.8102 40.1104 42.3688 40.118C44.2991 40.1447 47.0389 36.7538 46.8755 34.5925C46.1497 35.1233 45.4923 35.6082 44.4055 36.4063C44.2611 33.4278 44.1395 30.8961 44.0103 28.2613C42.631 29.6207 41.3846 30.8656 40.123 32.0952C38.9109 33.2789 37.6873 34.4474 36.4675 35.6197C37.5505 30.6899 39.8608 26.7262 44.2041 24.0723C45.2871 26.604 46.0889 29.1816 49.0604 30.1171C48.897 27.4365 48.7412 24.9239 48.5854 22.3998C40.5448 20.605 30.2547 28.7921 31.1895 38.2316C31.3947 40.3013 32.0216 40.8244 33.7278 39.6598C35.7987 38.2431 37.7595 36.6507 39.7658 35.1386Z" fill="white"/>
<path d="M140.969 32.4618C146.976 31.9195 153.166 26.8332 152.661 23.0528C148.876 22.7855 145.099 22.6328 141.714 24.8437C137.879 27.3487 135.447 30.6632 135.736 35.5205C135.862 37.6589 137.104 39.3505 138.894 39.74C141.094 40.2173 149.123 36.5171 150.525 34.0885C149.651 34.2565 149.036 34.2909 148.481 34.4971C146.836 35.1119 145.236 35.8565 143.575 36.4255C141.972 36.9754 141.178 36.4408 140.984 34.7873C140.9 34.0503 140.969 33.2942 140.969 32.4618Z" fill="white"/>
<path d="M118.986 23.0451C118.804 22.8542 118.625 22.6633 118.443 22.4724C115.981 22.774 113.518 23.0757 111.056 23.3774C111.014 23.6294 110.976 23.8776 110.934 24.1296C111.679 24.3205 112.424 24.5115 113.393 24.7559C113.154 25.3248 112.948 25.9014 112.675 26.4437C111.326 29.09 109.931 31.7133 108.609 34.3749C108.191 35.2111 107.803 36.1123 107.651 37.025C107.328 38.9228 108.058 39.6369 109.954 39.3696C111.379 39.1672 112.789 38.8464 114.198 38.56C114.559 38.4875 114.905 38.3462 115.262 38.2355C112.538 37.0632 112.409 36.815 113.496 34.604C114.221 33.13 115.156 31.7591 115.851 30.2699C116.961 27.8909 117.949 25.4547 118.986 23.0451Z" fill="white"/>
<path d="M117.269 14.1898C116.475 14.9306 115.68 15.7249 114.825 16.4542C113.568 17.5234 113.815 18.5086 114.947 19.4213C116.813 20.922 118.971 20.7349 121.202 20.5974C119.879 18.4437 118.644 16.4313 117.269 14.1898Z" fill="white"/>
<path d="M34.8682 13.514C29.9549 10.7073 24.9884 7.68298 19.8282 5.03288C18.084 4.13551 15.8345 3.7842 13.8547 3.89112C9.98261 4.10114 8.21185 7.84717 10.1612 11.1999C11.0808 12.7846 12.0992 14.3082 13.0225 15.8929C14.7971 18.9363 13.2923 22.9229 10.5032 24.4275C7.40627 26.0924 3.26057 25.0346 1.51262 22.0676C0.524643 20.3874 0.372647 18.5736 1.33782 16.8285C2.2042 15.2552 3.96736 14.5106 6.46009 14.7206C6.0573 15.4576 5.79131 16.0724 5.41512 16.607C4.43095 18.0161 3.57597 19.5473 4.67414 21.132C5.18333 21.8652 6.3689 22.4609 7.25808 22.4762C7.90026 22.4876 9.02123 21.5024 9.11243 20.8456C9.31002 19.4175 9.12383 17.8862 8.84264 16.4466C8.43225 14.354 7.44047 12.3264 7.33407 10.2376C7.08708 5.1818 10.0814 1.63816 14.9795 0.389481C18.217 -0.435333 21.2835 0.106905 24.1905 1.43195C29.4001 3.81093 34.5414 6.34647 39.6675 8.90492C40.8492 9.4968 41.6928 9.77174 43.0456 9.04239C46.3363 7.26675 49.9614 7.16365 53.5219 8.10684C56.7328 8.95838 57.508 11.9865 55.2129 14.4266C52.6289 17.1722 49.2204 17.9588 45.6903 17.6342C43.1216 17.3975 40.6174 16.4581 37.7029 15.7364C32.0107 22.6175 26.972 30.4112 25.1784 39.9042C24.6654 42.6268 24.4982 45.4373 24.3994 48.2172C24.312 50.6879 25.167 52.8721 27.5344 54.0559C29.9967 55.2893 32.2994 54.4835 34.1956 52.8836C35.6662 51.6425 36.7909 49.9738 38.0107 48.4502C38.6909 47.5986 39.2647 46.6783 40.853 47.2511C40.0437 49.802 39.7929 52.727 38.2805 54.6554C37.1481 56.0988 34.4388 56.6869 32.3526 56.9007C22.6135 57.9012 19.1214 51.0888 18.6844 43.2874C18.2588 35.7343 20.9339 29.1969 25.623 23.4995C28.4729 20.0437 31.7029 16.9087 34.8682 13.514ZM43.9994 10.9975C46.6897 12.7502 49.3838 13.6591 52.325 13.3268C53.1647 13.2314 53.9133 12.3187 54.6999 11.7841C54.0653 11.177 53.5371 10.2987 52.7847 10.0123C49.8702 8.90874 47.0203 9.31351 43.9994 10.9975Z" fill="black"/>
<path d="M61.4186 9.93214C60.4952 9.56555 59.9024 9.3288 58.8042 8.89348C61.3996 7.68299 63.6263 7.42715 65.8227 7.77464C66.993 7.95793 67.1602 9.19515 66.6663 10.2567C65.6175 12.4906 64.5041 14.6901 63.4325 16.9087C62.5662 18.7034 61.7226 20.5096 60.8828 22.2814C64.0899 20.334 67.2438 18.4247 70.4472 16.481C71.7391 22.438 68.0266 26.5506 59.0094 29.1205C62.0304 31.3773 62.5548 34.6384 63.3223 37.9185C65.0171 45.1548 69.634 46.3194 75.5846 45.3915C76.8918 45.1853 78.2826 43.9939 79.1641 42.8827C80.5967 41.0765 81.5809 40.5457 84.6474 41.3782C83.686 42.5619 83.0515 43.887 82.0027 44.5438C76.6866 47.8736 70.9564 48.6946 65.0361 46.4416C60.8562 44.8531 59.511 41.1872 58.9562 37.0899C58.6637 34.9286 58.2609 32.7902 56.6573 30.5792C55.7339 33.531 53.093 35.5434 54.7422 38.8426C52.903 39.0374 51.1208 39.2283 49.2285 39.4307C48.9321 37.3114 49.0537 35.4288 50.0227 33.5081C53.606 26.3902 57.0601 19.2075 60.5522 12.0438C60.8676 11.3832 61.107 10.6882 61.4186 9.93214ZM58.4623 26.7835C62.7904 25.8174 64.5725 24.2709 65.0703 21.2466C62.9499 23.0222 60.9208 24.7215 58.4623 26.7835Z" fill="black"/>
<path d="M91.4678 39.3696C91.3386 33.8976 95.2069 30.0981 96.4532 25.3516C93.1359 28.6508 90.818 32.6069 89.488 37.0326C89.0662 38.434 88.8154 39.1405 87.3221 39.1328C86.5355 39.129 85.7489 39.3887 84.9319 39.5338C84.4873 36.9448 85.1561 34.7376 86.3949 32.5725C87.8123 30.0942 89.0168 27.4938 90.3734 24.8361C88.9104 24.4733 87.9567 24.2365 86.9991 23.9998C86.9839 23.8165 86.9649 23.6332 86.9497 23.4499C89.4652 22.4074 92.2582 22.7931 94.9941 22.1516C95.0435 22.8657 95.0815 23.4041 95.1233 23.9654C96.21 23.3697 97.1866 22.5831 98.2924 22.2814C100.698 21.6246 101.294 22.2012 101.291 24.584C102.404 23.9311 103.525 23.0681 104.794 22.6022C105.641 22.2891 107.063 22.1669 107.545 22.648C108.047 23.1482 108.035 24.5955 107.724 25.4279C106.686 28.204 105.406 30.8923 104.228 33.615C103.783 34.646 103.361 35.6847 102.909 36.7691C103.715 37.109 104.353 37.3839 104.995 37.655C104.999 37.8536 104.999 38.0522 105.003 38.2546C102.924 38.6555 100.846 39.0565 98.5926 39.4956C97.806 34.1038 101.291 30.2775 102.913 25.8213C99.7706 28.8608 97.2474 32.3701 96.3734 36.6889C96.0353 38.3615 95.2677 38.7128 94.0327 38.9877C93.3069 39.1367 92.5621 39.2054 91.4678 39.3696Z" fill="black"/>
<path d="M130.394 24.3244C129.425 25.2446 128.183 26.0045 127.537 27.1119C126.051 29.6666 124.85 32.3892 123.539 35.0469C122.836 36.4713 122.947 37.6054 124.835 38.0865C124.805 38.2431 124.771 38.3997 124.74 38.5562C122.65 38.8961 120.557 39.2321 118.277 39.6025C118.033 33.9663 121.974 29.8957 123.642 24.8093C122.783 24.6107 122.038 24.4389 120.853 24.164C122.681 22.648 124.573 22.8771 126.306 22.5334C127.655 22.2661 128.407 22.5182 128.244 23.679C130.026 23.1941 131.838 22.606 133.693 22.2203C135.293 21.8881 136.022 22.9802 135.802 24.3396C135.543 25.9282 135.008 27.5129 134.327 28.9754C133.366 31.0374 132.135 32.9658 131.082 34.9897C130.717 35.6923 130.55 36.4942 130.288 37.2541C131.002 37.6016 131.531 37.8574 132.587 38.3729C131.58 38.6593 131.094 38.8655 130.592 38.9228C129.84 39.0068 129.076 38.9763 128.32 39.0144C125.128 39.1748 124.877 38.9915 126.085 35.8794C127.317 32.7061 128.912 29.678 130.315 26.5735C130.584 25.9778 130.698 25.3134 130.885 24.6833C130.717 24.5649 130.558 24.4465 130.394 24.3244Z" fill="black"/>
<path d="M75.094 35.0317C73.0724 36.5438 71.0699 38.1629 68.9419 39.5949C67.2738 40.7175 66.7076 40.2593 66.5442 38.2546C65.8754 30.0599 72.3048 23.7172 79.3461 22.2814C80.7938 21.9836 82.3556 22.2394 83.9288 22.2394C84.0732 24.8055 84.2137 27.2914 84.3695 30.0293C81.436 28.9754 80.5924 26.4857 79.5285 23.9921C75.151 26.6957 72.833 30.6327 71.5335 35.2951C71.6741 35.4288 71.8147 35.5625 71.9515 35.6961C74.277 33.0956 76.6063 30.4952 78.9319 27.8947C79.1713 28.0093 79.4069 28.12 79.6463 28.2346C79.6463 30.7778 79.6463 33.3171 79.6463 36.3796C80.8318 35.4899 81.531 34.9629 82.3214 34.3711C82.2948 36.5133 79.7185 39.9004 77.9097 40.0607C77.3283 40.1104 76.3631 39.4803 76.1199 38.9228C75.588 37.6932 75.4094 36.3147 75.094 35.0317Z" fill="black"/>
<path d="M39.7667 35.1386C37.7603 36.6508 35.8034 38.2431 33.7248 39.6598C32.0187 40.8245 31.3917 40.3013 31.1865 38.2317C30.2517 28.7921 40.5457 20.6089 48.5825 22.3998C48.7383 24.9239 48.8941 27.4365 49.0575 30.1172C46.0859 29.1816 45.2804 26.6041 44.2012 24.0723C39.8579 26.7263 37.5476 30.6899 36.4646 35.6197C37.6843 34.4436 38.9079 33.2751 40.1201 32.0952C41.3817 30.8656 42.628 29.6207 44.0074 28.2613C44.1328 30.8923 44.2582 33.4279 44.4026 36.4064C45.4894 35.6083 46.1505 35.1233 46.8725 34.5925C47.0359 36.7577 44.2962 40.1486 42.3658 40.118C41.8072 40.1104 40.9827 39.4918 40.7623 38.9534C40.2683 37.7467 40.0783 36.4102 39.7667 35.1386Z" fill="black"/>
<path d="M140.969 32.4618C140.969 33.2942 140.897 34.0503 140.984 34.7911C141.174 36.4445 141.972 36.9791 143.575 36.4293C145.236 35.8603 146.832 35.1157 148.481 34.5009C149.036 34.2947 149.651 34.2603 150.525 34.0923C149.123 36.5171 141.094 40.2173 138.894 39.7438C137.104 39.3581 135.865 37.6627 135.736 35.5243C135.447 30.667 137.879 27.3525 141.714 24.8475C145.095 22.6365 148.873 22.7893 152.661 23.0566C153.166 26.8332 146.976 31.9195 140.969 32.4618ZM141.755 29.762C144.32 29.7735 146.703 27.6618 147.334 24.7788C144.658 25.6189 142.827 27.1921 141.755 29.762Z" fill="black"/>
<path d="M118.987 23.0451C117.946 25.4547 116.958 27.8909 115.848 30.2699C115.153 31.7553 114.218 33.1262 113.492 34.604C112.406 36.815 112.535 37.0632 115.259 38.2355C114.906 38.3462 114.556 38.4875 114.195 38.56C112.782 38.8464 111.376 39.1672 109.951 39.3696C108.055 39.6369 107.329 38.919 107.648 37.025C107.804 36.1123 108.191 35.215 108.606 34.3749C109.928 31.7171 111.323 29.09 112.672 26.4437C112.945 25.9053 113.15 25.3287 113.39 24.7559C112.425 24.5077 111.676 24.3167 110.931 24.1296C110.973 23.8776 111.011 23.6294 111.053 23.3774C113.515 23.0757 115.977 22.774 118.44 22.4724C118.626 22.6633 118.808 22.8542 118.987 23.0451Z" fill="black"/>
<path d="M117.269 14.1898C118.644 16.4313 119.879 18.4399 121.202 20.5936C118.971 20.7311 116.809 20.9182 114.947 19.4175C113.815 18.5048 113.568 17.5196 114.825 16.4504C115.677 15.7287 116.475 14.9306 117.269 14.1898Z" fill="black"/>
<path d="M43.9992 10.9975C47.0201 9.3135 49.8701 8.90873 52.7846 10.0123C53.537 10.2987 54.069 11.177 54.6997 11.7841C53.9094 12.3225 53.1608 13.2352 52.3248 13.3268C49.3799 13.6552 46.6895 12.7464 43.9992 10.9975Z" fill="white"/>
<path d="M58.4621 26.7835C60.9206 24.7215 62.9498 23.0222 65.0701 21.2466C64.5723 24.2709 62.7902 25.8174 58.4621 26.7835Z" fill="white"/>
<path d="M141.756 29.762C142.831 27.1921 144.659 25.615 147.334 24.7787C146.7 27.6656 144.321 29.7773 141.756 29.762Z" fill="white"/>
</g>
<defs>
<clipPath id="clip0_2_266">
<rect width="152" height="57" fill="white" transform="translate(0.691589)"/>
</clipPath>
</defs>
</svg>
