<svg width="137" height="27" viewBox="0 0 137 27" fill="none" xmlns="http://www.w3.org/2000/svg">
<g opacity="0.4" clip-path="url(#clip0_2_236)">
<path d="M36.1045 2.32929C36.1353 2.14363 36.1321 2.11555 36.1434 2.09371C37.2172 0.0202637 37.2172 0.0202637 39.6374 0.0202637C65.1494 0.0202637 90.6631 0.0202637 116.175 0.0202637C116.49 0.0202637 116.806 0.0202637 117.273 0.0202637C116.822 0.780058 116.479 1.45404 116.032 2.0547C115.898 2.23724 115.474 2.28873 115.184 2.28873C110.13 2.30277 105.077 2.29809 100.023 2.29809C92.6437 2.29809 85.2665 2.30589 77.8876 2.28249C77.2583 2.28092 76.9371 2.46814 76.637 2.99548C72.272 10.6667 67.8697 18.3193 63.5192 25.9984C63.0991 26.7394 62.6612 27.039 61.7788 26.9828C60.4925 26.9001 59.1964 26.961 57.7268 26.961C62.4195 18.714 67.0457 10.5841 71.7448 2.32617C59.7917 2.32929 47.9781 2.32929 36.1045 2.32929Z" fill="black"/>
<path d="M127.225 0.0218646C124.62 4.24676 122.109 8.32032 119.508 12.5374C120.853 12.5374 122.029 12.5655 123.204 12.5109C123.41 12.5015 123.648 12.1755 123.789 11.9477C126.08 8.24387 128.37 4.53851 130.623 0.814422C130.975 0.230925 131.343 -0.0296204 132.075 0.00158264C133.557 0.067109 135.045 0.0218646 136.691 0.0218646C136.48 0.38382 136.325 0.663087 136.159 0.936114C130.993 9.42646 125.823 17.9153 120.668 26.4134C120.418 26.8253 120.146 26.986 119.65 26.9766C118.11 26.947 116.571 26.9657 114.848 26.9657C117.291 22.8531 119.672 18.8467 122.151 14.6764C120.796 14.6764 119.622 14.6483 118.452 14.7029C118.243 14.7123 117.995 15.0274 117.857 15.2536C115.703 18.8233 113.539 22.3867 111.442 25.9875C111.001 26.7457 110.517 27.0406 109.615 26.9875C108.253 26.9064 106.882 26.9673 105.367 26.9673C106.068 25.7987 106.692 24.7472 107.325 23.7019C111.966 16.029 116.613 8.35932 121.234 0.675569C121.534 0.17788 121.846 -0.00309782 122.435 0.0109436C123.969 0.0483872 125.509 0.0218646 127.225 0.0218646Z" fill="black"/>
<path d="M32.2877 0.0374537C31.8011 0.800368 31.428 1.45875 30.9673 2.05785C30.8359 2.22947 30.4564 2.28875 30.1903 2.29031C27.4068 2.30592 24.6217 2.36208 21.8399 2.27471C20.3686 2.22947 19.4797 2.81609 18.7693 3.98308C16.148 8.28286 13.4748 12.5514 10.8324 16.8387C9.55262 18.9153 8.29551 21.0043 7.03353 23.0903C6.91187 23.2915 6.78535 23.499 6.71722 23.719C6.51122 24.3743 6.8113 24.8096 7.5234 24.833C8.49502 24.8642 9.46989 24.8626 10.4415 24.8267C10.6637 24.8189 10.9703 24.6645 11.0839 24.4866C12.9931 21.502 14.8795 18.505 16.7676 15.5079C16.7903 15.472 16.7709 15.4096 16.7709 15.2911C16.0069 15.2911 15.238 15.2911 14.2712 15.2911C14.6816 14.564 15.0028 13.9587 15.3694 13.3799C15.444 13.2613 15.6922 13.1864 15.8593 13.1864C18.3994 13.1817 20.938 13.1927 23.4782 13.202C23.5236 13.202 23.569 13.2488 23.6939 13.3175C23.1586 14.2036 22.6282 15.0914 22.0913 15.976C19.9826 19.4504 17.8642 22.9202 15.7733 26.4056C15.5089 26.8471 15.2153 27.0031 14.6881 27C10.7692 26.9782 6.85023 26.9891 2.93291 26.9891C1.29299 26.9891 0.379759 25.8845 0.788523 24.3181C0.931266 23.7736 1.1908 23.2416 1.48439 22.7533C5.39523 16.2318 9.33688 9.72912 13.238 3.20456C14.4221 1.22473 16.2226 0.131063 18.5016 0.071777C23.037 -0.0452344 27.5772 0.0374537 32.2877 0.0374537Z" fill="black"/>
<path d="M21.1543 26.986C21.7026 26.0468 22.1697 25.237 22.6466 24.4336C26.2168 18.4176 29.7951 12.4079 33.3507 6.38415C33.7595 5.69301 34.3386 5.35757 35.1155 5.35289C38.2494 5.33573 41.3833 5.30609 44.5155 5.35445C46.5528 5.38566 47.3055 6.59945 46.3695 8.32342C45.4206 10.0708 44.389 11.776 43.3589 13.4797C42.8593 14.3066 41.9526 14.5672 41.0621 14.8059C40.1391 15.0524 40.1261 15.0914 40.6063 15.8558C41.1724 16.7576 40.9907 17.65 40.5025 18.5128C39.4319 20.4037 38.3143 22.2712 37.2826 24.1808C36.8268 25.0249 36.5332 25.95 36.1066 26.9828C34.8414 26.9828 33.3037 27.0094 31.7692 26.9719C31.0165 26.9532 31.0668 26.3104 31.1204 25.8611C31.1739 25.4149 31.4026 24.9702 31.6281 24.5615C33.1106 21.8827 34.6143 19.2148 36.1082 16.5423C36.5916 15.678 36.3516 15.3379 35.3556 15.2349C34.1082 15.1054 33.3361 15.4455 32.6808 16.5954C30.8041 19.8951 28.7408 23.0965 26.778 26.351C26.5023 26.8081 26.2136 27.014 25.6442 26.9984C24.2184 26.9594 22.7877 26.986 21.1543 26.986ZM34.8982 13.1755C35.5681 13.1755 36.0758 13.1225 36.5673 13.1864C37.7303 13.3362 38.4749 12.8073 38.9988 11.8915C39.6736 10.712 40.3484 9.53254 40.9891 8.33434C41.3443 7.67128 41.1237 7.314 40.3646 7.19075C38.8123 6.93957 38.4522 7.1065 37.6671 8.43887C37.5876 8.57461 37.5032 8.70722 37.4238 8.84139C36.6127 10.2346 35.8017 11.6278 34.8982 13.1755Z" fill="black"/>
<path d="M76.5058 20.7547C75.8959 21.8063 75.3638 22.7002 74.8577 23.6082C74.4182 24.3945 74.642 24.7331 75.5569 24.8423C76.5577 24.9624 77.2081 24.7425 77.7256 23.7627C79.1173 21.1276 80.6648 18.5689 82.149 15.9791C82.2625 15.7794 82.3566 15.5703 82.535 15.2162C82.0776 15.2162 81.7435 15.224 81.4093 15.2146C80.1165 15.1818 78.8091 15.2411 77.5326 15.0804C76.2738 14.9213 75.7888 14.018 76.1554 12.8463C76.2625 12.5015 76.4052 12.1583 76.5934 11.8494C77.6364 10.1223 78.6907 8.39986 79.758 6.68525C80.3144 5.79284 81.1644 5.33884 82.2415 5.33416C84.9698 5.32168 87.6981 5.31856 90.4281 5.3326C91.7647 5.33884 92.6049 5.89894 92.7104 6.85999C92.7477 7.20634 92.7055 7.61198 92.5449 7.91465C92.081 8.7899 91.6966 9.804 90.9666 10.4109C90.5076 10.7916 89.4792 10.5529 88.7071 10.5654C87.823 10.581 86.939 10.5685 85.8928 10.5685C86.3615 9.79464 86.7752 9.13781 87.1612 8.46539C87.6446 7.62446 87.3883 7.23599 86.4005 7.14082C85.4499 7.04877 84.8092 7.26407 84.3534 8.18612C83.6478 9.6121 82.7638 10.9554 81.9592 12.3361C81.8327 12.5545 81.7321 12.7854 81.5553 13.138C82.8822 13.138 84.0858 13.138 85.2893 13.138C87.9788 13.1396 88.7979 14.4127 87.4889 16.6499C85.7159 19.6798 83.896 22.6846 82.0744 25.6864C81.578 26.5039 80.78 26.9407 79.7937 26.947C77.0119 26.9672 74.2284 26.9938 71.4465 26.947C69.3394 26.9111 68.5981 25.663 69.5649 23.8625C70.0596 22.942 70.6111 22.0465 71.1756 21.1635C71.2957 20.9747 71.5795 20.7734 71.7936 20.7688C73.2989 20.7391 74.8091 20.7547 76.5058 20.7547Z" fill="black"/>
<path d="M104.768 10.5809C105.244 9.75094 105.668 9.03639 106.068 8.31092C106.404 7.70246 106.218 7.30306 105.501 7.2157C104.915 7.14549 104.31 7.14705 103.723 7.19853C103.514 7.21726 103.261 7.44036 103.142 7.63538C99.8786 12.9883 96.6263 18.3458 93.3838 23.7096C92.9442 24.4367 93.1826 24.7939 94.0845 24.8407C96.1592 24.9484 96.1527 24.9453 97.2232 23.2026C97.7164 22.3991 98.0586 21.3086 98.7983 20.9045C99.538 20.4988 100.688 20.7843 101.66 20.7719C102.25 20.7656 102.841 20.7703 103.595 20.7703C103.202 21.4287 102.878 21.9794 102.549 22.5286C101.966 23.4943 101.369 24.4523 100.8 25.4242C100.203 26.443 99.3238 26.9688 98.0975 26.9657C95.4763 26.9594 92.8534 26.9703 90.2321 26.9563C89.833 26.9547 89.4227 26.8955 89.035 26.7956C87.9109 26.507 87.361 25.6973 87.8298 24.6738C88.49 23.2338 89.3188 21.8577 90.1461 20.4957C92.9263 15.9229 95.7407 11.3719 98.5323 6.80694C99.1227 5.84276 100.008 5.36223 101.134 5.34975C103.674 5.32167 106.218 5.28579 108.756 5.37628C109.447 5.40124 110.221 5.74447 110.764 6.16727C111.066 6.4013 111.176 7.17981 111.017 7.58233C110.639 8.54182 110.059 9.42955 109.533 10.3313C109.46 10.4561 109.236 10.5669 109.079 10.5685C107.684 10.5887 106.289 10.5809 104.768 10.5809Z" fill="black"/>
<path d="M60.5912 13.1256C60.1419 13.8214 59.8126 14.4111 59.3941 14.9354C59.2513 15.1132 58.8864 15.199 58.622 15.2037C57.2708 15.2302 55.9196 15.1928 54.5684 15.2349C54.2797 15.2443 53.866 15.4221 53.7363 15.6437C52.0428 18.5377 50.3899 21.4552 48.7322 24.368C48.6721 24.4741 48.6592 24.6036 48.5927 24.8252C50.4305 24.8252 52.1937 24.8252 54.0866 24.8252C53.686 25.5319 53.3681 26.1248 53.0128 26.6958C52.9333 26.8237 52.7241 26.9501 52.5749 26.9501C48.9625 26.9641 45.3501 26.961 41.582 26.961C42.4417 25.4711 43.2349 24.095 44.0297 22.7205C47.1279 17.3707 50.2472 12.0303 53.3113 6.66186C53.8628 5.69457 54.5668 5.29361 55.7006 5.31077C58.7793 5.35445 61.8596 5.32637 65.1006 5.32637C64.7632 5.93015 64.5085 6.4606 64.1743 6.93957C64.077 7.07998 63.7559 7.12679 63.5352 7.12835C62.0754 7.14395 60.6155 7.11899 59.1573 7.15331C58.8864 7.15955 58.4987 7.31244 58.3738 7.51682C57.3259 9.24235 56.3267 10.9944 55.3146 12.7387C55.2659 12.8229 55.2367 12.9196 55.1523 13.1225C56.9788 13.1256 58.7096 13.1256 60.5912 13.1256Z" fill="black"/>
<path d="M34.8975 13.1755C35.7993 11.6278 36.612 10.2346 37.423 8.84291C37.5025 8.70718 37.5869 8.57457 37.6663 8.4404C38.4514 7.10802 38.8115 6.94109 40.3639 7.19227C41.123 7.31553 41.342 7.6728 40.9884 8.33587C40.3476 9.5325 39.6729 10.712 38.9981 11.893C38.4741 12.8088 37.7296 13.3377 36.5666 13.1879C36.0751 13.1224 35.5674 13.1755 34.8975 13.1755Z" fill="white"/>
</g>
<defs>
<clipPath id="clip0_2_236">
<rect width="136" height="27" fill="white" transform="translate(0.691406)"/>
</clipPath>
</defs>
</svg>
